<svg xmlns="http://www.w3.org/2000/svg" viewBox="55.687 80.23 37.32 41.773" width="37.32" height="41.773">
<?xml-stylesheet type="text/css" href="../css/main.css" ?>
  <path class="svg-logo" d="M 74.263 104.541 Q 74.263 104.937 74.078 105.266 L 73.828 105.24 L 73.643 105.266 L 73.287 105.464 L 72.377 105.332 L 71.481 105.649 L 70.11 105.649 L 68.409 105.86 L 68.317 105.86 L 67.75 105.807 Q 67.051 106.163 66.511 106.163 L 66.247 106.137 L 65.403 106.031 L 63.492 105.952 L 62.978 105.833 L 62.252 105.701 L 61.896 105.622 L 61.791 105.293 Q 61.541 105.293 61.409 105.135 Q 61.105 105.266 61.04 105.266 Q 60.895 105.266 60.552 105.055 L 60.275 104.924 Q 60.249 104.568 60.038 104.33 Q 59.774 104.436 59.655 104.436 Q 59.576 104.436 59.523 104.383 L 59.392 104.251 L 58.798 103.684 L 58.442 102.972 L 58.113 102.603 L 57.744 102.063 L 57.546 101.601 Q 57.744 101.232 57.77 100.876 L 57.625 100.679 L 57.15 100.599 L 56.926 100.112 Q 56.794 99.914 56.794 99.742 Q 56.794 99.624 56.821 99.492 L 56.821 99.466 L 56.636 98.411 Q 56.61 98.305 56.61 98.068 Q 56.61 97.739 56.742 97.356 L 56.583 97.093 L 56.742 96.249 Q 56.781 95.774 56.847 95.517 Q 56.913 95.26 57.084 95.01 Q 57.058 94.957 57.058 94.878 Q 57.058 94.785 57.229 94.469 L 57.309 94.179 L 57.823 93.955 L 57.796 93.493 Q 57.796 93.335 57.849 93.283 L 58.521 92.426 L 58.851 91.832 L 59.194 91.529 L 59.55 91.015 L 60.196 90.527 L 60.407 90.158 L 61.659 89.644 L 62.081 89.314 L 62.569 89.235 L 62.74 89.103 L 62.978 88.932 L 63.241 88.8 Q 63.953 88.536 64.375 88.484 L 65.548 88.457 L 66.115 88.207 L 67.209 88.101 L 67.895 87.97 L 69.161 88.128 L 69.345 88.128 L 69.569 88.128 Q 69.912 88.51 69.965 88.51 Q 70.149 88.51 70.321 88.26 L 70.453 88.26 L 70.505 88.154 L 70.809 88.207 L 71.56 88.536 L 72.074 88.563 Q 72.404 88.563 72.404 88.826 Q 72.404 89.037 72.021 89.182 Q 71.613 89.499 71.428 89.499 L 71.191 89.42 Q 70.94 89.934 70.65 89.934 L 70.532 89.934 L 70.018 89.749 L 69.424 89.591 L 69.002 89.288 L 68.383 89.13 L 67.79 88.906 L 66.247 89.024 L 65.351 89.051 Q 64.599 89.09 64.217 89.314 L 63.333 89.855 L 62.463 90.263 L 61.382 91.015 L 60.921 91.226 L 60.631 91.832 Q 59.985 91.951 59.985 92.281 Q 59.985 92.439 60.09 92.61 L 59.84 92.927 Q 59.682 93.203 59.444 93.335 L 59.523 93.718 L 59.392 94.034 L 58.957 95.445 L 58.798 95.853 L 58.68 96.341 L 58.732 96.631 L 58.732 96.908 L 58.653 97.145 L 58.548 97.093 L 58.601 97.304 Q 58.284 97.514 58.284 97.686 Q 58.284 97.804 58.495 98.042 L 58.904 98.174 L 58.904 98.516 Q 58.904 98.714 58.983 98.899 Q 58.732 99.11 58.732 99.281 Q 58.732 99.36 58.798 99.439 L 59.141 99.307 L 59.273 99.571 L 59.55 100.468 L 59.84 100.982 L 59.734 101.47 L 59.893 101.733 L 60.038 101.733 Q 60.275 101.733 60.42 101.878 Q 60.565 102.023 60.71 102.406 L 60.815 102.682 L 60.947 102.814 L 60.631 102.999 L 60.815 103.144 L 61.303 103.025 L 61.659 103.276 L 61.923 103.434 L 62.226 103.711 L 62.74 103.895 L 63.65 104.462 L 64.111 104.62 L 64.032 104.897 Q 64.507 104.95 64.652 105.003 L 65.061 105.135 L 66.168 105.161 L 66.432 105.332 L 66.708 105.214 L 67.697 105.135 L 68.238 105.055 L 68.515 105.029 Q 68.699 105.029 68.95 105.161 L 69.213 105.003 Q 69.635 104.818 69.807 104.818 L 69.833 104.818 L 70.242 104.845 L 70.756 104.765 L 70.729 104.62 L 70.967 104.515 Q 71.31 104.409 71.382 104.363 Q 71.455 104.317 71.639 104.133 L 71.692 104.225 Q 72.153 104.067 72.153 103.816 L 72.048 103.408 L 72.074 102.379 L 71.969 100.903 L 72.18 100.441 L 72.18 100.336 Q 72.18 100.059 71.89 99.848 L 71.837 99.571 L 71.784 99.083 L 71.837 98.793 L 71.56 98.767 L 70.558 98.688 L 69.886 98.635 L 69.622 98.661 L 69.055 98.714 Q 69.002 98.714 68.778 98.635 L 68.857 98.253 Q 69.042 98.2 69.095 98.16 Q 69.147 98.121 69.292 97.87 L 69.49 97.659 Q 69.873 97.818 70.215 97.818 L 70.426 97.818 L 73.538 97.633 L 73.907 97.659 Q 74.21 98.16 74.21 98.437 Q 74.21 98.622 73.933 98.767 L 73.933 99.004 L 74.104 99.004 L 74.078 99.492 L 74.104 99.769 Q 74.104 99.98 74.058 100.079 Q 74.012 100.178 73.854 100.309 L 73.999 100.955 Q 74.184 101.206 74.184 101.575 Q 74.184 101.957 74.078 102.3 Q 73.775 102.326 73.683 102.425 Q 73.59 102.524 73.59 102.867 L 74.263 103.46 L 74.236 104.304 Z" style="fill: rgb(51, 51, 51); white-space: pre;"/>
  <path class="svg-logo" d="M 91.226 93.433 Q 91.173 93.565 90.936 93.684 Q 91.12 94.093 91.12 94.172 L 91.067 95.253 L 91.12 96.11 L 90.962 96.729 L 91.015 97.599 L 90.936 98.812 L 91.015 99.511 L 90.936 99.973 L 90.988 101.212 L 90.962 101.568 L 90.883 101.436 Q 90.659 101.607 90.659 101.752 Q 90.659 102.016 91.041 102.266 Q 91.147 102.741 91.147 102.992 Q 91.147 103.519 90.942 103.987 Q 90.738 104.455 90.197 105.299 L 90.013 105.589 L 89.499 105.892 L 89.393 105.589 L 88.774 104.64 L 87.983 103.651 L 87.389 102.622 L 87.178 102.346 L 87.231 102.056 Q 87.231 101.739 86.77 101.383 Q 86.124 100.843 86.045 100.724 L 85.319 99.432 L 84.937 98.971 L 84.7 98.298 Q 84.476 97.758 83.856 97.758 L 83.698 97.441 L 82.933 96.189 L 82.722 95.49 L 82.287 95.002 L 82.208 95.108 L 81.997 94.976 Q 81.087 93.433 80.27 93.012 Q 80.376 92.682 80.376 92.524 Q 80.376 92.194 80.125 92.194 L 79.835 92.3 Q 79.624 92.089 79.479 92.089 L 79.215 92.221 L 79.505 92.84 L 79.189 92.959 L 79.268 93.17 L 79.163 93.737 L 79.215 94.87 L 79.136 95.253 L 78.912 95.358 L 78.939 95.675 L 79.163 96.439 Q 79.189 96.466 79.189 96.472 Q 79.189 96.479 79.189 96.492 Q 79.189 96.703 78.859 97.138 L 78.965 97.679 L 79.084 97.982 L 79.084 101.858 L 79.242 102.992 Q 79.242 103.005 79.242 103.018 Q 79.242 103.031 79.215 103.084 L 79.057 103.835 L 79.084 103.994 Q 79.321 104.125 79.321 104.297 Q 79.321 104.468 78.675 105.404 L 78.517 105.641 L 78.213 105.615 Q 77.963 105.918 77.805 105.918 L 77.778 105.918 L 77.488 105.892 L 77.264 105.945 L 77.291 105.615 Q 77.33 105.246 77.409 105.127 L 77.699 104.758 L 77.923 104.429 L 77.62 104.165 L 77.699 103.862 L 77.858 103.479 Q 77.726 103.084 77.726 103.031 Q 77.739 103.005 77.745 102.985 Q 77.752 102.965 77.752 102.939 L 77.95 102.24 L 77.884 100.724 Q 78.003 100.526 78.293 100.46 L 78.293 100.328 L 78.003 99.973 L 78.055 99.682 L 78.003 99.406 L 78.082 98.654 Q 78.082 98.641 78.075 98.628 Q 78.068 98.615 78.055 98.601 L 77.884 98.035 L 77.976 97.27 L 77.923 96.729 Q 77.923 96.466 78.293 96.215 L 78.266 95.899 L 78.082 95.464 Q 78.082 95.332 78.161 95.081 Q 77.923 94.884 77.923 94.66 Q 77.923 94.422 78.082 93.842 L 77.95 93.658 L 77.923 93.275 L 77.805 92.366 Q 77.805 92.273 77.923 91.983 L 77.923 91.68 Q 77.923 90.876 77.778 90.691 L 77.185 89.953 L 77.291 89.663 L 77.62 89.465 Q 77.95 89.281 78.082 89.162 Q 78.213 89.043 78.293 88.819 L 78.517 88.687 L 79.136 87.962 Q 79.189 87.91 79.295 87.91 Q 79.598 87.91 79.756 88.279 L 80.349 89.439 L 80.587 89.742 L 80.811 90.151 L 80.732 90.23 Q 81.048 90.546 81.562 91.416 L 82.234 92.55 Q 82.459 92.946 82.459 93.012 Q 82.459 93.17 82.34 93.302 L 82.88 93.605 L 82.801 93.842 L 83.025 94.119 L 83.566 94.897 L 83.962 95.279 L 84.107 95.714 L 85.293 96.98 L 85.043 97.112 Q 85.108 97.375 85.214 97.461 Q 85.319 97.547 85.636 97.599 L 86.255 98.456 L 86.071 98.483 L 86.427 98.733 Q 86.796 98.997 86.901 99.155 Q 87.007 99.313 87.046 99.656 L 87.231 99.841 L 87.205 100.025 Q 87.205 100.315 87.389 100.645 L 87.692 100.843 Q 88.259 101.093 88.286 101.133 L 88.853 102.003 L 89.143 102.187 L 89.525 102.517 L 89.657 102.214 L 89.63 100.619 L 89.907 99.973 Q 89.63 99.682 89.63 99.458 Q 89.63 99.327 89.657 99.274 L 89.828 98.733 L 89.907 96.848 L 90.118 96.439 L 89.96 96.031 L 90.066 95.411 L 90.066 95.385 Q 90.066 95.213 89.749 95.081 L 89.683 91.654 Q 89.868 91.641 89.927 91.555 Q 89.986 91.469 90.013 91.205 L 89.604 90.902 L 89.551 90.441 Q 89.485 89.861 89.387 89.676 Q 89.288 89.492 88.984 89.492 Q 88.932 89.281 88.932 89.175 Q 88.932 88.687 90.066 88.397 Q 90.25 88.12 90.389 88.015 Q 90.527 87.91 90.988 87.712 Q 91.147 87.975 91.147 88.2 L 91.094 88.582 L 91.173 88.872 L 91.147 89.386 L 91.173 90.494 Q 91.173 90.823 91.094 91.06 L 90.988 91.601 L 90.988 91.627 L 91.199 92.497 L 91.147 93.143 Z" style="fill: rgb(51, 51, 51); white-space: pre;"/>
</svg>